<?xml version="1.0" encoding="UTF-8" standalone="no"?>
<!-- Created with Inkscape (http://www.inkscape.org/) -->

<svg
   xmlns:dc="http://purl.org/dc/elements/1.1/"
   xmlns:cc="http://creativecommons.org/ns#"
   xmlns:rdf="http://www.w3.org/1999/02/22-rdf-syntax-ns#"
   xmlns:svg="http://www.w3.org/2000/svg"
   xmlns="http://www.w3.org/2000/svg"
   xmlns:sodipodi="http://sodipodi.sourceforge.net/DTD/sodipodi-0.dtd"
   xmlns:inkscape="http://www.inkscape.org/namespaces/inkscape"
   width="210mm"
   height="297mm"
   viewBox="0 0 210 297"
   version="1.1"
   id="svg8"
   sodipodi:docname="dessin-1.svg"
   inkscape:version="0.92.1 r15371"
   inkscape:export-filename="/home/adrien/Documents/Informatique/X/Mod3D/INF443/Déroulé création Terrain/SchemaIle.png"
   inkscape:export-xdpi="96"
   inkscape:export-ydpi="96">
  <defs
     id="defs2" />
  <sodipodi:namedview
     id="base"
     pagecolor="#ffffff"
     bordercolor="#666666"
     borderopacity="1.0"
     inkscape:pageopacity="0.0"
     inkscape:pageshadow="2"
     inkscape:zoom="0.98994949"
     inkscape:cx="436.71815"
     inkscape:cy="655.48382"
     inkscape:document-units="mm"
     inkscape:current-layer="layer1"
     showgrid="false"
     inkscape:window-width="1920"
     inkscape:window-height="1009"
     inkscape:window-x="0"
     inkscape:window-y="0"
     inkscape:window-maximized="1" />
  <metadata
     id="metadata5">
    <rdf:RDF>
      <cc:Work
         rdf:about="">
        <dc:format>image/svg+xml</dc:format>
        <dc:type
           rdf:resource="http://purl.org/dc/dcmitype/StillImage" />
      </cc:Work>
    </rdf:RDF>
  </metadata>
  <g
     inkscape:label="Calque 1"
     inkscape:groupmode="layer"
     id="layer1">
    <rect
       style="fill:none;stroke:#000000;stroke-width:0.36027232;stroke-miterlimit:4;stroke-dasharray:none;stroke-dashoffset:0;stroke-opacity:1"
       id="rect4485"
       width="149.99628"
       height="132.98735"
       x="40.851566"
       y="53.613468"
       inkscape:export-xdpi="96"
       inkscape:export-ydpi="96" />
    <path
       sodipodi:type="star"
       style="fill:none;stroke:#000000;stroke-width:0.30000001;stroke-miterlimit:4;stroke-dasharray:none;stroke-dashoffset:0;stroke-opacity:1"
       id="path4487"
       sodipodi:sides="3"
       sodipodi:cx="111.12499"
       sodipodi:cy="126.53274"
       sodipodi:r1="59.817043"
       sodipodi:r2="29.908524"
       sodipodi:arg1="-1.5707963"
       sodipodi:arg2="-0.52359878"
       inkscape:flatsided="true"
       inkscape:rounded="0"
       inkscape:randomized="0"
       d="m 111.12499,66.715694 51.80308,89.725566 -103.606158,0 z"
       inkscape:transform-center-y="-14.954263"
       inkscape:transform-center-x="1.8380952e-06"
       inkscape:export-xdpi="96"
       inkscape:export-ydpi="96" />
    <path
       style="fill:#000000;stroke:#000000;stroke-width:0.3;stroke-miterlimit:4;stroke-dasharray:none;stroke-dashoffset:0;stroke-opacity:1;fill-opacity:1"
       id="path4521"
       d="m 112.49697,121.4146 c 0.22557,0.18022 0.4309,0.38142 0.61362,0.60456 0.61999,0.78749 -0.49369,1.66429 -1.11368,0.8768 v 0 c -0.10346,-0.15764 -0.27215,-0.26514 -0.40735,-0.39247 -0.76996,-0.64164 0.13745,-1.73052 0.90741,-1.08889 z"
       inkscape:connector-curvature="0"
       inkscape:export-xdpi="96"
       inkscape:export-ydpi="96" />
    <path
       style="fill:#000000;fill-opacity:1;stroke:#000000;stroke-width:0.30000001;stroke-miterlimit:4;stroke-dasharray:none;stroke-dashoffset:0;stroke-opacity:1"
       id="path4543"
       d="m 111.59475,123.25006 c -0.0855,-0.0893 -0.17433,-0.17541 -0.26423,-0.2603 -0.0352,-0.0333 -0.071,-0.0659 -0.10699,-0.0983 -0.34632,-0.3289 0.0348,-0.5962 0.24061,-0.713 0.21095,-0.0965 0.39025,-0.0759 0.58846,0.0337 0.10233,0.0658 0.18886,0.15143 0.27138,0.23991 0.10221,0.11219 0.028,-0.0162 -0.51127,0.48937 -0.32548,-0.38105 0.21339,-0.84135 0.53888,-0.4603 v 0 c -0.44669,0.46714 -0.339,0.68217 -0.54632,0.45384 -0.0371,-0.0399 -0.0749,-0.079 -0.11626,-0.11449 0.033,-0.003 0.0836,0.0182 0.10794,-0.0163 -0.0378,0.0107 -0.0637,0.0473 -0.0645,0.0418 -0.0795,-0.52233 -0.16007,-0.59294 -0.0343,-0.48087 0.04,0.0361 0.0798,0.0724 0.11902,0.10944 0.0982,0.0927 0.19506,0.1868 0.28848,0.28432 0.34733,0.36124 -0.16354,0.85244 -0.51087,0.4912 z"
       inkscape:connector-curvature="0"
       inkscape:export-xdpi="96"
       inkscape:export-ydpi="96" />
    <path
       style="fill:#000000;fill-opacity:1;stroke:#000000;stroke-width:0.30000001;stroke-miterlimit:4;stroke-dasharray:none;stroke-dashoffset:0;stroke-opacity:1"
       id="path4545"
       d="m 112.10353,123.43779 c -0.12463,-0.11088 -0.24999,-0.22095 -0.37388,-0.33259 -0.0886,-0.0838 -0.16156,-0.1812 -0.23956,-0.27434 -0.0734,-0.074 -0.12163,-0.17069 -0.19834,-0.24137 -0.006,-0.007 -0.043,-0.0493 -0.0608,-0.0615 -0.007,-0.005 0.0189,0.0157 -0.003,0.0124 -0.16892,0.007 -0.23074,-0.0715 -0.36075,-0.17724 -0.019,-0.0953 -0.0694,-0.1895 -0.0571,-0.2859 0.0261,-0.20462 0.2349,-0.29827 0.40082,-0.34875 0.007,-0.002 0.0569,-0.0193 0.0622,-0.0217 0.005,-0.002 -0.0204,0.008 -0.0166,0.004 0.0241,-0.026 0.0347,-0.0178 0.009,-0.009 0.0727,-0.0634 0.0178,-0.018 0.11126,-0.0863 0.004,-0.003 0.017,-0.0142 0.0128,-0.0106 -0.10858,0.096 -0.10355,0.12916 -0.11163,0.2684 0.004,0.0362 0.0196,0.0724 0.0463,0.0935 0.0419,0.0185 -0.0981,-4e-5 -0.0236,0.008 2.4e-4,0.0178 0.076,-0.0261 0.0723,-0.0152 -0.004,0.0128 -0.0162,0.0219 -0.022,0.0341 -7.9e-4,0.003 -0.004,0.0122 -0.002,0.01 0.0768,-0.0954 -0.005,-0.23505 -0.0709,-0.3055 -0.0701,-0.0446 -0.071,-0.0543 -0.16779,-0.065 -0.0368,-0.032 -0.0652,0.0136 -0.0982,0.0123 -0.0131,-5.3e-4 0.019,-0.0179 0.029,-0.0263 0.0756,-0.0582 0.12955,-0.13547 0.18518,-0.21156 0.0966,-0.13625 0.20487,-0.26119 0.33405,-0.36707 0.16262,-0.11779 0.34546,-0.15369 0.54238,-0.13849 0.18734,0.024 0.33648,0.11633 0.46806,0.24667 0.0559,0.0723 0.0854,0.0899 0.14586,0.13465 0.0884,0.0704 0.17848,0.13866 0.2635,0.21319 0.0753,0.0775 0.15132,0.15389 0.2286,0.22932 0.0668,0.0767 0.14666,0.13895 0.22326,0.20517 0.10437,0.0998 0.21476,0.2029 0.24934,0.35 0.0108,0.0458 0.0112,0.0934 0.0168,0.14016 -0.0127,0.18612 -0.10727,0.33753 -0.22092,0.47834 -0.11624,0.12547 -0.264,0.19356 -0.42777,0.2323 -0.11663,0.0223 -0.23564,0.0234 -0.35394,0.0242 -0.0957,5e-5 -0.19142,-5.2e-4 -0.28713,-7.9e-4 -0.008,-0.0176 -0.18057,0.0186 -0.12023,0.0107 -0.0648,0.0473 0.024,-0.0211 0.0402,-0.044 -0.17838,0.46831 -0.84067,0.21603 -0.66229,-0.25227 v 0 c 0.0678,-0.15377 0.15234,-0.26679 0.30872,-0.33939 0.13989,-0.0602 0.28202,-0.0941 0.43558,-0.0838 0.0937,2.7e-4 0.18739,7.9e-4 0.28108,7.9e-4 0.0692,-2.6e-4 0.13866,-2.2e-4 0.20753,-0.008 0.006,-8e-4 0.0253,0.001 0.0318,-0.002 0.0182,-0.01 0.0225,-0.0203 0.006,0.004 0.0474,-0.0291 0.0591,-0.15783 0.0527,-0.008 0.0139,0.0533 0.0204,0.0798 0.0598,0.11742 0.006,0.006 -0.0106,-0.0131 -0.0165,-0.0191 -0.0814,-0.0824 -0.0195,-0.0148 -0.0645,-0.0647 -0.0879,-0.0761 -0.1792,-0.14894 -0.25679,-0.23612 -0.0691,-0.0691 -0.14081,-0.13552 -0.20629,-0.20828 -0.063,-0.0641 -0.14405,-0.10918 -0.21039,-0.16972 -0.0875,-0.0648 -0.16987,-0.13346 -0.23932,-0.21758 -0.003,-0.005 -0.007,-0.009 -0.009,-0.014 -0.002,-0.004 0.0208,0.002 0.0126,-0.002 -0.0266,-0.0124 -0.04,-0.005 -0.0232,-0.0123 -0.0455,-0.008 -0.002,0.003 -0.003,-0.009 -1.7e-4,-0.002 -0.034,0.003 -0.0354,7.9e-4 -0.0859,0.0516 -0.13292,0.15497 -0.19855,0.2272 -0.0927,0.12656 -0.18997,0.24983 -0.31482,0.3468 -0.20105,0.1571 -0.39861,0.23683 -0.63852,0.0862 -0.0258,-0.0242 -0.0566,-0.0439 -0.0774,-0.0725 -0.13136,-0.18042 -0.12464,-0.38784 -0.0126,-0.57526 0.11156,-0.166 0.24871,-0.302 0.45422,-0.33885 0.14014,-0.011 0.27751,-0.004 0.40964,0.0502 0.17052,0.0867 0.30524,0.21249 0.35294,0.40469 0.002,0.0599 0.0164,0.12079 0.005,0.17973 -0.0254,0.13695 -0.12131,0.24143 -0.22102,0.30715 -0.10212,0.0932 -0.21752,0.16201 -0.35249,0.19676 -0.0255,0.003 0.008,-0.0158 0.0123,-0.0234 0.13416,-0.24542 0.10315,-0.13046 0.0286,-0.43594 -0.05,-0.0369 -0.0985,-0.076 -0.15001,-0.11067 -0.0161,-0.0108 -0.0768,-0.009 -0.0574,-0.009 0.0588,0.002 0.11738,0.0105 0.17467,0.0237 0.15073,0.0431 0.28579,0.11549 0.38704,0.23835 0.0847,0.0894 0.15684,0.18801 0.23547,0.28247 0.0568,0.0682 0.10965,0.1393 0.17122,0.2032 0.1186,0.10812 0.24044,0.21281 0.35979,0.32015 0.38026,0.3264 -0.0813,0.86417 -0.46159,0.53777 z"
       inkscape:connector-curvature="0"
       inkscape:export-xdpi="96"
       inkscape:export-ydpi="96" />
    <text
       xml:space="preserve"
       style="font-style:normal;font-weight:normal;font-size:5.29166651px;line-height:1.25;font-family:sans-serif;letter-spacing:0px;word-spacing:0px;fill:#000000;fill-opacity:1;stroke:none;stroke-width:0.26458332"
       x="116.39587"
       y="121.27029"
       id="text4549"
       inkscape:export-xdpi="96"
       inkscape:export-ydpi="96"><tspan
         sodipodi:role="line"
         id="tspan4547"
         x="116.39587"
         y="121.27029"
         style="font-size:5.29166651px;stroke-width:0.26458332">(0,0,?)</tspan></text>
    <text
       xml:space="preserve"
       style="font-style:normal;font-weight:normal;font-size:5.29166651px;line-height:1.25;font-family:sans-serif;letter-spacing:0px;word-spacing:0px;fill:#000000;fill-opacity:1;stroke:none;stroke-width:0.26458332"
       x="40.624966"
       y="198.91208"
       id="text4553"
       inkscape:export-xdpi="96"
       inkscape:export-ydpi="96"><tspan
         sodipodi:role="line"
         id="tspan4551"
         x="40.624966"
         y="198.91208"
         style="font-size:5.29166651px;stroke-width:0.26458332">(-l/2,-l/2,0)</tspan></text>
    <text
       xml:space="preserve"
       style="font-style:normal;font-weight:normal;font-size:5.29166651px;line-height:1.25;font-family:sans-serif;letter-spacing:0px;word-spacing:0px;fill:#000000;fill-opacity:1;stroke:none;stroke-width:0.26458332"
       x="169.71616"
       y="198.64482"
       id="text4557"
       inkscape:export-xdpi="96"
       inkscape:export-ydpi="96"><tspan
         sodipodi:role="line"
         id="tspan4555"
         x="169.71616"
         y="198.64482"
         style="stroke-width:0.26458332">(l/2,-l/2,0)</tspan></text>
    <text
       xml:space="preserve"
       style="font-style:normal;font-weight:normal;font-size:5.29166651px;line-height:1.25;font-family:sans-serif;letter-spacing:0px;word-spacing:0px;fill:#000000;fill-opacity:1;stroke:none;stroke-width:0.26458332"
       x="35.740116"
       y="48.229851"
       id="text4553-3"
       inkscape:export-xdpi="96"
       inkscape:export-ydpi="96"><tspan
         sodipodi:role="line"
         id="tspan4551-6"
         x="35.740116"
         y="48.229851"
         style="font-size:5.29166651px;stroke-width:0.26458332">(-l/2,l/2,0)</tspan></text>
    <text
       xml:space="preserve"
       style="font-style:normal;font-weight:normal;font-size:5.29166651px;line-height:1.25;font-family:sans-serif;letter-spacing:0px;word-spacing:0px;fill:#000000;fill-opacity:1;stroke:none;stroke-width:0.26458332"
       x="169.90942"
       y="51.169815"
       id="text4553-7"
       inkscape:export-xdpi="96"
       inkscape:export-ydpi="96"><tspan
         sodipodi:role="line"
         id="tspan4551-5"
         x="169.90942"
         y="51.169815"
         style="font-size:5.29166651px;stroke-width:0.26458332">(l/2,l/2,0)</tspan></text>
    <path
       style="fill:none;stroke:#000000;stroke-width:0.265;stroke-linecap:butt;stroke-linejoin:miter;stroke-opacity:1;stroke-miterlimit:4;stroke-dasharray:none"
       d="M 154.08088,161.49435 H 67.88646 l 3.220311,-2.17218 v -0.0472"
       id="path4616"
       inkscape:connector-curvature="0" />
    <path
       style="fill:none;stroke:#000000;stroke-width:0.26458332px;stroke-linecap:butt;stroke-linejoin:miter;stroke-opacity:1"
       d="m 67.88646,161.49435 2.653345,3.02499"
       id="path4618"
       inkscape:connector-curvature="0" />
    <path
       style="fill:none;stroke:#000000;stroke-width:0.26458332px;stroke-linecap:butt;stroke-linejoin:miter;stroke-opacity:1"
       d="m 151.14091,158.55438 2.93997,2.93997 -2.93996,2.67269"
       id="path4620"
       inkscape:connector-curvature="0" />
    <text
       xml:space="preserve"
       style="font-style:normal;font-weight:normal;font-size:5.29166651px;line-height:1.25;font-family:sans-serif;letter-spacing:0px;word-spacing:0px;fill:#000000;fill-opacity:1;stroke:none;stroke-width:0.26458332"
       x="105.17056"
       y="167.5079"
       id="text4624"><tspan
         sodipodi:role="line"
         id="tspan4622"
         x="105.17056"
         y="167.5079"
         style="stroke-width:0.26458332">l_ile</tspan></text>
    <text
       xml:space="preserve"
       style="font-style:normal;font-weight:normal;font-size:5.29166651px;line-height:1.25;font-family:sans-serif;letter-spacing:0px;word-spacing:0px;fill:#000000;fill-opacity:1;stroke:none;stroke-width:0.26458332"
       x="55.373512"
       y="161.68451"
       id="text4504"><tspan
         sodipodi:role="line"
         id="tspan4502"
         x="55.373512"
         y="161.68451"
         style="stroke-width:0.26458332">tr1</tspan></text>
    <text
       xml:space="preserve"
       style="font-style:normal;font-weight:normal;font-size:5.29166651px;line-height:1.25;font-family:sans-serif;letter-spacing:0px;word-spacing:0px;fill:#000000;fill-opacity:1;stroke:none;stroke-width:0.26458332"
       x="106.743"
       y="63.464371"
       id="text4504-3"><tspan
         sodipodi:role="line"
         id="tspan4502-6"
         x="106.743"
         y="63.464371"
         style="stroke-width:0.26458332">tr3</tspan></text>
    <text
       xml:space="preserve"
       style="font-style:normal;font-weight:normal;font-size:5.29166651px;line-height:1.25;font-family:sans-serif;letter-spacing:0px;word-spacing:0px;fill:#000000;fill-opacity:1;stroke:none;stroke-width:0.26458332"
       x="163.13687"
       y="161.28502"
       id="text4504-7"
       inkscape:export-xdpi="96"
       inkscape:export-ydpi="96"><tspan
         sodipodi:role="line"
         id="tspan4502-5"
         x="163.13687"
         y="161.28502"
         style="stroke-width:0.26458332">tr2</tspan></text>
  </g>
</svg>
